<svg id="SvgjsSvg1001" width="288" height="288" xmlns="http://www.w3.org/2000/svg" version="1.1" xmlns:xlink="http://www.w3.org/1999/xlink" xmlns:svgjs="http://svgjs.com/svgjs"><defs id="SvgjsDefs1002"></defs><g id="SvgjsG1008" transform="matrix(1,0,0,1,0,0)"><svg xmlns="http://www.w3.org/2000/svg" width="288" height="288" version="1.0" viewBox="0 0 512 512"><path d="M2469 5105 c-15 -8 -517 -408 -1115 -890 -770 -619 -1097 -887 -1116-917 -37 -55 -39 -150 -6 -209 15 -27 112 -111 324 -281 167 -134 303 -245
303 -248 0 -3 -135 -113 -300 -245 -339 -271 -349 -282 -349 -386 0 -54 5 -72
28 -107 19 -30 345 -298 1116 -918 599 -481 1102 -882 1117 -890 35 -18 130
-18 172 0 18 7 525 410 1127 895 882 709 1099 889 1118 923 33 62 31 150 -5
206 -18 26 -134 127 -323 278 -162 130 -295 240 -295 244 0 4 135 116 300 249
336 270 345 280 345 386 0 50 -5 69 -27 103 -20 29 -359 308 -1118 918 -600
482 -1104 883 -1122 890 -42 18 -141 17 -174 -1z m999 -1181 c496 -400 902
-730 902 -734 0 -8 -434 -360 -444 -360 -3 0 -284 224 -623 497 -340 274 -634
506 -653 515 -49 26 -145 24 -189 -3 -18 -11 -204 -157 -412 -325 -388 -312
-406 -329 -424 -411 -11 -54 18 -135 65 -177 23 -20 52 -41 66 -46 42 -16 122
-12 162 9 20 11 172 128 337 260 164 133 302 241 305 241 13 0 1805 -1449
1805 -1460 0 -11 -1792 -1460 -1805 -1460 -11 0 -1810 1451 -1810 1460 0 12
437 363 448 358 4 -1 283 -225 619 -495 337 -271 627 -502 645 -513 43 -26
139 -27 188 -2 19 9 207 156 418 326 291 234 387 317 402 347 24 45 27 134 6
182 -17 39 -71 92 -109 106 -40 15 -122 14 -160 -3 -18 -8 -169 -125 -337
-260 -167 -135 -307 -246 -310 -246 -11 0 -1810 1451 -1810 1460 0 9 1799
1460 1810 1460 3 0 412 -327 908 -726z" transform="matrix(.1 0 0 -.1 0 512)" fill="#ffbf66" class="color000 svgShape"></path></svg></g></svg>